<svg width="598" height="370" viewBox="0 0 598 370" fill="none" xmlns="http://www.w3.org/2000/svg">
<g filter="url(#filter0_d)">
<path d="M299.325 217.722C375.935 222.539 430.397 242.342 454.189 262.632C477.731 282.708 460.862 304.476 422.552 322.81C386.126 340.243 325.618 353.141 254.173 358.355C186.459 363.297 108.312 361.803 54.3341 349.684C6.36318 338.913 12.6271 319.541 6.52599 302.753C2.21697 290.896 6.63345 279.57 24.9154 268.732C44.1272 257.343 72.5022 248.122 110.634 241.033C169.881 230.02 229.314 213.321 299.325 217.722Z" fill="#04C273" fill-opacity="0.5" shape-rendering="crispEdges"/>
<path d="M299.325 217.722C375.935 222.539 430.397 242.342 454.189 262.632C477.731 282.708 460.862 304.476 422.552 322.81C386.126 340.243 325.618 353.141 254.173 358.355C186.459 363.297 108.312 361.803 54.3341 349.684C6.36318 338.913 12.6271 319.541 6.52599 302.753C2.21697 290.896 6.63345 279.57 24.9154 268.732C44.1272 257.343 72.5022 248.122 110.634 241.033C169.881 230.02 229.314 213.321 299.325 217.722Z" stroke="#04C273" shape-rendering="crispEdges"/>
</g>
<path fill-rule="evenodd" clip-rule="evenodd" d="M324.279 134.584C346.629 132.902 367.952 140.782 385.815 153.062C408.838 168.89 428.351 191.527 441.56 215.379C442.965 216.403 444.349 217.452 445.723 218.512C453.075 224.177 460.257 230.161 466.623 236.822C470.177 240.539 479.499 249.58 475.452 255.282C474.593 256.493 473.183 257.188 471.77 257.667C467.809 259.009 463.68 259.689 459.773 261.259C454.951 263.195 449.95 265.908 446.861 270.044C445.982 271.221 445.753 272.609 444.572 273.127C443.319 273.677 440.958 273.463 439.589 273.59C436.836 273.845 434.084 274.101 431.331 274.355C424.864 274.955 418.105 275.021 411.779 276.499L382.677 283.297C376.725 284.687 369.884 285.453 364.239 287.738C355.816 291.149 347.779 296.142 339.719 300.257C335.822 302.247 331.925 304.237 328.027 306.226C326.124 307.199 324.821 307.212 322.591 307.374L306.494 308.545C303.898 308.734 302.651 309.724 302.311 307.265L298.569 280.24L296.592 265.95C296.474 265.1 296.509 260.89 295.773 260.381C295.311 260.063 292.601 260.749 292.1 260.807L284.794 261.653C279.532 262.263 274.271 262.872 269.009 263.482C268.582 263.531 266.216 263.506 265.95 263.836C265.639 264.224 266.231 266.445 266.284 266.923C266.842 271.942 267.401 276.96 267.959 281.978C268.024 282.56 268.771 285.258 268.378 285.736C268.104 286.068 266.122 286.108 265.719 286.17C260.643 286.954 255.568 287.738 250.492 288.522C246.857 289.083 242.106 289.055 238.67 290.348C236.697 291.09 234.744 292.989 233.04 294.176L208.284 311.409C204.53 314.022 199.469 313.356 194.897 313.686L142.154 317.487C142.198 315.934 142.242 314.38 142.286 312.825C142.518 304.594 142.749 296.364 142.981 288.133L143.285 277.368C143.304 276.687 143.016 274.693 143.487 274.189C144.113 273.521 146.909 273.231 147.777 272.988C150.688 272.173 153.599 271.358 156.51 270.543C165.049 268.151 173.588 265.76 182.127 263.369C190.567 261.006 199.006 258.642 207.445 256.279C210.333 255.471 213.22 254.662 216.108 253.853C216.775 253.667 219.104 253.418 219.568 252.885C220.152 252.212 219.891 249.344 219.984 248.492C220.442 244.333 221.096 240.193 221.891 236.081C227.629 206.419 241.039 176.289 265.903 156.501C282.339 143.42 302.956 136.188 324.279 134.584ZM328.22 194.067C326.008 191.609 322.291 187.6 318.382 188.265C315.205 188.806 313.474 192.532 312.367 195.009C307.916 204.964 306.536 216.375 305.152 227.014C304.283 233.69 303.584 240.395 303.138 247.108C318.992 245.954 334.847 244.8 350.701 243.646C349.953 238.867 349.353 234.043 348.452 229.287C348.001 226.903 346.752 224.757 345.684 222.554C340.908 212.703 335.696 202.37 328.22 194.067Z" fill="#04A3B5"/>
<path fill-rule="evenodd" clip-rule="evenodd" d="M548.307 0L548.695 0.00633779C559.217 0.271168 568.495 6.67633 575.691 13.4549C579.25 16.8065 582.495 20.749 584.022 25.3366C585.785 30.636 585.205 36.4651 583.863 41.7838C580.9 53.5376 577.277 65.352 573.204 76.807C571.199 82.442 568.293 87.9672 566.78 93.7347C565.533 98.4863 570.785 101.947 570.986 106.83C571.189 111.756 567.685 116.384 562.871 118.144C560.821 118.894 558.34 118.268 556.45 119.036C554.721 119.738 554.116 121.811 553.784 123.402C553.332 125.573 553.413 127.741 553.542 129.93C553.621 131.27 553.268 133.456 553.959 134.65C554.433 135.471 555.297 135.739 556.042 136.3C557.058 137.067 557.736 138.02 558.627 138.901C560.096 140.354 561.509 141.141 561.908 143.261C562.121 142.779 562.333 142.298 562.545 141.817C563.64 143.712 564.452 144.621 563.41 146.419C566.641 146.12 568.555 151.664 569.402 153.767C570.953 157.615 572.018 161.613 573.573 165.464C575.703 170.743 578.503 175.952 579.862 181.476C581.004 186.118 581.908 190.886 582.923 195.561C583.495 198.193 583.993 200.866 585.039 203.376C585.446 204.351 586.201 205.006 586.669 205.875C587.308 207.064 587.058 207.692 587.089 208.994C587.143 211.315 588.69 212.822 589.177 215.077C589.697 217.486 590.122 219.922 590.646 222.336C591.703 227.199 593.661 232.055 594.133 236.98C594.68 242.699 595.854 248.349 596.444 254.07C596.961 259.069 596.083 264.435 597.187 269.271C598.165 273.564 596.952 277.488 596.52 281.75C596.411 282.832 598.172 289.274 595.341 288.037C595.873 289.556 596.618 290.28 596.659 291.946C596.696 293.504 596.271 295.106 595.924 296.617C595.254 299.537 594.808 302.719 593.495 305.455C592.011 308.549 589.75 308.92 586.675 309.981C584.594 310.7 580.846 313.264 579.206 310.521C578.228 313.337 576.318 311.391 574.178 311.233C574.193 311.234 572.953 311.667 572.721 311.697C571.969 311.793 571.079 311.457 570.33 311.399C568.463 311.252 566.632 311.488 564.806 311.846C560.598 312.671 556.527 313.812 552.256 314.386C543.915 315.509 535.741 314.978 527.388 315.47C511.04 316.432 494.422 315.625 478.062 315.208C476.306 315.163 474.414 315.396 472.681 315.141C470.813 314.865 470.405 314.029 468.95 313.191C466.531 311.8 463.846 313.153 461.336 313.662C453.967 315.154 446.271 315.264 438.843 316.708C423.752 319.639 409.847 325.426 395.392 330.306C389.125 332.422 381.769 335.848 375.011 335.997C366.822 336.165 368.756 328.533 370.261 323.628C365.529 324.816 358.098 330.246 353.288 327.095C347.556 323.34 354.85 317.097 355.193 312.683C344.948 314.695 333.327 319.107 322.929 315.52C320.928 314.831 319.187 313.372 317.039 313.135C314.806 312.888 312.446 313.634 310.189 313.621C305.046 313.59 300.052 312.943 294.911 313.542C283.448 314.878 272.148 315.609 260.593 315.897C248.961 316.187 237.327 316.838 225.689 316.811C219.781 316.797 213.765 316.134 207.869 316.432C205.554 316.548 200.572 318.139 198.946 315.913C197.313 317.765 195.926 316.528 193.831 316.733C194.219 316.695 192.74 317.504 192.518 317.583C191.416 317.97 190.387 317.852 189.237 317.841C186.175 317.811 183.314 319.167 180.267 319.036C179.497 319.003 178.914 318.791 178.26 318.541C178.105 318.481 178.142 317.851 177.894 317.798C176.403 317.482 176.789 318.346 175.842 318.782C174.793 319.264 173.241 318.483 173.838 319.967C170.991 319.849 168.294 320.757 165.704 319.16C166.929 321.72 162.651 319.593 161.533 319.551C159.676 319.48 158.049 320.359 156.196 320.562C153.973 320.804 151.74 319.829 149.566 320.424C147.863 320.89 147.279 322.011 145.507 321.438C144 320.951 143.059 319.894 142.329 318.737C141.32 317.142 141.191 316.43 138.759 316.402C136.955 316.381 135.142 316.748 133.322 316.745C131.235 316.741 128.943 316.532 127.038 317.47C124.986 318.481 123.781 320.019 121.506 320.811C111.274 324.37 100.042 323.428 89.3658 323.367C84.8617 323.342 81.5563 323.734 80.2918 318.873C79.2235 314.767 78.7952 310.472 77.776 306.332C76.527 301.259 75.1543 296.552 72.383 292.016C69.6952 287.618 67.4336 283.074 65.093 278.505C60.2253 269.003 53.4494 260.918 45.8947 253.196C43.0248 250.262 39.7356 246.993 39.602 242.769C39.5041 239.12 41.2028 235.341 43.4309 232.434C45.4204 229.84 48.6983 226.914 52.4062 227.519C54.6391 227.884 56.1028 229.588 57.7692 230.866C59.5906 232.262 61.5747 233.214 63.7699 233.976C68.8889 235.752 73.1816 237.696 77.6145 240.762C82.1 243.865 86.2931 247.339 90.1721 251.102C97.6185 258.325 105.249 265.829 109.527 275.182C111.213 278.867 112.291 282.421 113.44 286.242C114.57 289.994 117.644 288.96 121.101 288.421C125.315 287.763 129.549 287.411 133.791 286.994C135.387 286.837 137.638 286.791 138.599 285.364C139.659 283.79 138.445 281.751 138.348 280.119C138.297 279.247 138.603 278.604 138.679 277.753C138.767 276.786 138.465 275.903 138.464 274.94C138.463 272.869 139.487 271.024 141.19 269.769C144.377 267.421 149.024 266.021 152.797 264.729C157.947 262.965 163.467 262.098 168.771 260.839C174.744 259.421 180.752 258.143 186.757 256.855C192.657 255.59 198.548 254.288 204.512 253.314C208.01 252.742 211.805 252.951 215.195 251.906C218.799 250.796 218.202 247.366 218.191 244.326C218.174 239.307 218.83 234.139 219.607 229.177C221.261 218.628 225.199 208.304 228.779 198.223C232.228 188.514 236.5 179.195 243.554 171.316C250.42 163.645 258.847 156.704 267.589 151.004C276.698 145.064 286.834 140.773 296.342 135.471C294.264 133.967 291.785 132.685 290.591 130.369C289.243 127.755 289.814 124.63 289.872 121.836C289.936 118.683 290.038 115.915 291.228 112.912C291.88 111.267 294.398 108.146 294.012 106.358C293.366 103.354 286.42 101.16 283.862 99.9242C279.851 97.9855 275.832 96.0163 272.135 93.5689C268.588 91.221 265.25 88.3951 263.101 84.791C262.491 83.7684 261.989 82.6944 261.6 81.5796C261.166 80.3358 261.47 79.912 260.156 79.8209C258.058 79.6749 254.913 81.6668 253.145 82.5467C244.032 87.0834 234.024 93.1886 223.272 92.7834C219.371 92.6369 214.985 91.4774 213.606 87.6283C211.79 82.5609 215.581 77.3259 218.908 73.6658C212.419 74.6307 200.452 77.6462 195.331 72.1685C191.919 68.5186 194.493 62.7252 197.354 59.5602C201.135 55.3795 206.525 52.8342 211.504 50.174C205.395 47.9705 198.631 46.5615 193.259 42.8742C188.12 39.3482 188.755 33.9311 192.814 29.7719C197.153 25.3258 204.74 23.0487 210.707 21.3981C218.026 19.3734 225.297 19.5358 232.839 19.6716C246.375 19.9149 258.003 24.6354 269.105 31.7723C274.975 35.5461 280.761 39.6187 285.968 44.1893C290.851 48.4758 296.06 52.4619 300.872 56.7948C305.534 60.993 309.201 66.1946 314.121 70.1167C318.305 73.4514 322.893 78.1781 328.208 79.6585C333.844 81.2282 338.918 83.8245 344.602 85.3699C351.05 87.1224 356.589 90.0531 362.565 92.8491C387.642 104.583 414.563 112.22 441.001 120.644C454.524 124.952 468.137 127.989 481.943 131.28C488.876 132.932 495.314 133.814 502.469 133.515C504.118 133.447 505.694 133.406 507.321 133.623C508.514 133.781 509.42 134.208 510.487 133.533C512.019 132.565 512.595 130.043 513.509 128.607C508.417 127.114 503.433 125.498 501.11 120.562C499.646 117.452 498.886 113.824 498.245 110.486C497.9 108.69 497.892 106.878 497.598 105.081C497.436 104.088 496.938 103.051 496.976 102.037C496.862 102.601 493.068 100.745 492.517 100.401C490.394 99.0703 490.008 96.3886 490.025 94.1251C490.046 91.5685 490.862 88.7583 492.697 86.8196C493.565 85.9018 494.599 85.2137 495.861 84.868C496.758 84.6224 497.939 84.9438 498.73 84.6965C502.235 83.6004 502.627 75.3946 503.124 72.4073C504.22 65.8251 505.312 59.541 507.677 53.2315C511.989 41.7283 517.539 30.5489 524.149 20.0756C529.813 11.1014 535.471 0.128001 547.924 0H548.307ZM440.654 276.329C435.613 277.155 430.784 278.841 425.915 280.271C421.368 281.606 416.759 282.457 412.095 283.325C402.811 285.053 393.323 286.635 384.173 288.887C381.597 289.522 380.242 290.954 377.994 291.949C376.327 292.687 374.763 291.939 373.03 291.876C369.256 291.74 365.069 292.905 361.439 293.773C352.871 295.821 345.268 299.378 337.515 303.31C336.821 303.661 332.129 305.692 332.352 306.533C332.533 307.22 338.496 305.377 339.445 305.24C344.247 304.548 348.937 303.116 353.704 302.226C357.617 301.496 361.573 301.001 365.469 300.19C369.805 299.288 379.04 296.151 379.407 302.925C379.804 310.247 371.258 312.498 366.121 315.913C366.694 316.847 374.935 313.767 375.957 313.456C379.461 312.387 382.712 310.46 386.28 309.639C392.488 308.212 391.736 314.698 388.309 317.583C384.501 320.788 378.204 321.757 376.095 326.69C378.864 327.635 382.484 325.86 385.028 324.978C388.368 323.82 391.72 322.679 395.081 321.574C402.624 319.095 409.789 315.678 417.372 313.316C432.931 308.47 449.377 307.08 465.642 306.219C464.193 300.9 462.608 295.612 461.306 290.259C460.748 287.967 460.238 285.665 459.816 283.348C459.522 281.736 459.772 277.88 458.598 276.609C457.169 275.061 453.448 277.236 451.422 277.194C449.438 277.153 447.991 276.185 446.157 275.879C444.417 275.589 442.357 276.05 440.654 276.329ZM148.304 307.116C148.304 309.659 147.838 312.743 151.373 313.04C154.232 313.28 159.826 313.589 162.106 311.666C159.921 310.658 157.437 310.482 155.115 309.901C152.696 309.295 150.463 308.3 148.304 307.116ZM206.651 260.79C205.576 260.797 203.762 261.929 202.781 262.244C200.986 262.822 199.161 263.309 197.329 263.768C191.822 265.147 184.732 265.362 182.204 270.954C180.942 273.745 180.067 280.922 175.681 280.896C171.783 280.872 169.448 275.55 166.667 273.656C163.793 271.699 159.237 273.031 156.137 273.881C152.987 274.744 148.099 275.851 148.452 279.628C148.707 282.343 149.225 284.814 149.2 287.588C149.17 291.118 148.854 294.641 148.854 298.172C151.066 295.306 152.995 289.543 156.913 288.391C160.871 287.226 163.11 293.768 164.139 296.276C165.415 299.382 167.018 302.905 167.116 306.272C167.146 307.329 166.468 310.233 167.245 311.103C167.935 311.875 170.588 311.315 171.445 311.231C176.75 310.708 182.027 310.058 187.348 309.622C190.081 309.399 190.826 308.831 190.558 306.05C190.348 303.866 190.283 301.784 190.572 299.591C191.865 289.801 198.237 280.845 209.012 279.145C215.505 278.121 223.088 278.87 229.57 279.854C232.069 280.233 234.781 281.378 237.32 281.278C239.195 281.205 238.591 281.104 238.975 279.434C239.244 278.267 239.818 277.271 240.757 276.461C241.499 275.822 242.44 276.183 243.139 275.347C243.645 274.742 243.569 273.918 243.808 273.221C244.274 271.865 245.116 270.034 246.793 269.692C249.491 269.14 252.359 272.558 253.721 274.321C255.128 276.143 255.553 281.585 257.816 282.297C260.427 283.118 263.533 279.881 264.078 277.842C264.81 275.098 263.887 272.13 263.447 269.413C263.415 269.219 263.287 267.414 263.145 267.296C262.764 266.978 259.894 267.067 259.385 267.043C256.884 266.931 254.379 266.925 251.876 266.919C242.062 266.896 232.449 265.983 222.7 265.01C224.116 267.193 226.54 270.779 224.052 273.084C222.208 274.792 218.879 273.935 216.563 274.287C213.292 274.784 207.776 277.722 204.658 275.574C200.264 272.547 205.234 267.345 206.866 264.484C207.215 263.871 208.511 261.712 207.962 260.993C207.486 260.37 207.348 260.785 206.651 260.79ZM133.47 294.436C131.226 295.084 128.966 295.706 126.674 296.186C123.985 296.749 119.816 296.203 118.508 299.001C117.512 301.129 118.006 304.561 118.815 306.68C119.741 309.107 121.914 309.732 124.479 309.917C127.472 310.133 130.505 309.676 133.463 309.289C134.629 309.136 135.872 308.861 137.056 308.859C137.759 308.857 139.177 309.466 139.803 308.968C140.612 308.324 140.079 304.662 140.016 303.785C139.858 301.611 139.422 299.467 139.303 297.29C139.218 295.726 139.841 293.601 137.904 293.268C136.698 293.06 134.518 294.134 133.47 294.436ZM314.651 251.409C312.974 251.683 311.307 251.88 309.604 251.855C308.555 251.84 307.299 251.503 306.329 252.047C304.538 253.053 304.805 255.702 304.866 257.355C304.941 259.36 305.126 261.395 305.353 263.391C305.568 265.299 306.675 268.441 305.112 270.076C304.01 268.935 303.466 265.203 301.338 265.339C298.999 265.488 300.08 269.025 300.288 270.292C301.435 277.292 302.742 284.297 303.766 291.317C304.253 294.655 304.882 297.968 305.208 301.322C305.427 303.573 305.5 305.6 308.16 306.066C310.624 306.499 313.393 305.761 315.885 305.704C318.45 305.646 319.919 305.481 321.394 303.288C317.861 302.556 312.264 303.004 310.273 299.468C307.953 295.344 312.848 291.633 315.257 288.813C317.106 286.648 320.886 279.45 324.318 283.726C325.554 285.265 325.777 287.614 326.401 289.404C327.416 292.313 328.656 295.181 329.873 298.018C341.004 292.582 352.425 287.682 364.565 284.63C361.47 279.681 357.639 275.225 355.322 269.861C352.726 263.85 350.576 257.674 347.922 251.682C343.714 254.006 339.215 248.373 335.025 248.146C328.406 247.788 321.14 250.345 314.651 251.409ZM248.715 291.935C246.408 293.236 243.013 295.765 242.459 298.379C241.502 302.899 246.954 299.877 248.638 298.888C252.161 296.817 255.614 296.156 259.66 297.432C264.85 299.068 269.632 301.83 275.202 299.731C277.973 298.687 284.12 296.455 282.462 292.45C281.318 289.69 277.971 292.058 276.203 293.047C271.572 295.638 267.737 293.997 263.11 292.127C258.482 290.256 253.271 289.368 248.715 291.935ZM84.37 268.741C82.5175 271.225 86.2835 270.689 87.9368 270.931C91.3941 271.436 94.9549 274.045 94.0021 277.735C93.0731 281.334 89.4334 283.583 88.7401 287.36C88.1444 290.604 88.7186 294.709 92.0294 296.49C93.889 297.49 97.9534 297.902 99.8251 296.753C102.683 294.999 99.1336 292.387 97.2428 291.518C94.7372 290.367 92.7136 289.743 93.9536 286.718C95.4651 283.03 98.4009 280.2 98.1401 275.98C97.9247 272.484 95.9742 268.511 92.4205 267.059C89.876 266.019 86.1053 266.414 84.37 268.741ZM337.309 258.024C340.511 257.894 340.639 261.556 340.477 263.356C340.256 265.818 340.729 268.442 340.783 270.912C340.856 274.184 341.58 284.897 335.465 283.306C331.532 282.283 328.297 278.718 325.136 276.427C322.228 274.318 314.834 271.789 314.355 267.792C313.815 263.277 319.644 262.432 322.984 261.715C327.753 260.69 332.382 258.224 337.309 258.024ZM321.708 139.026C316.629 139.489 311.579 140.203 306.746 141.799C303.476 142.878 298.453 143.652 296.136 146.302C294.132 148.593 295 151.859 294.349 154.566C293.468 158.229 290.795 157.728 288.203 155.441C285.101 152.704 284.204 150.721 279.886 153.29C270.947 158.608 263.859 166.46 256.768 173.734C262.251 175.305 273.008 175.685 274.829 182.166C275.825 185.709 272.824 188.287 270.127 190.221C266.645 192.718 263.011 195.027 259.605 197.625C256.427 200.048 249.301 209.698 247.285 201.214C246.037 195.962 248.376 190.535 247.383 185.347C243.072 191.923 238.694 198.484 234.741 205.262C231.376 211.032 229.419 217.204 227.806 223.584C230.322 223.74 232.94 222.532 235.427 223.245C237.822 223.932 238.943 226.076 239.111 228.296C239.397 232.061 237.56 235.893 236.635 239.508C236 241.992 235.272 247.627 232.075 248.435C228.431 249.356 226.144 244.053 224.519 241.898C222.973 244.148 222.998 247.438 222.772 250.017C222.617 251.79 221.572 255.104 223.68 256.084C225.652 257.002 229.812 255.852 231.922 255.768C235.836 255.611 239.826 255.311 243.742 255.42C247.441 255.523 252.884 257.394 254.33 253.093C255.313 250.165 256.18 239.64 261.428 245.35C263.76 247.886 265.583 250.776 267.835 253.36C270.107 255.966 272.172 256.137 275.565 256.005C282.281 255.745 288.839 256.965 295.411 257.95C301.177 258.814 300.42 254.184 300.335 250.062C300.204 243.673 301.543 236.991 302.273 230.637C304.01 215.528 307.575 200.6 313.06 186.31C308.472 184.832 300.247 190.795 296.855 186.266C294.067 182.543 297.649 177.415 299.107 173.935C300.926 169.593 301.846 165.057 304.813 161.209C305.749 159.994 307.081 158.366 308.894 158.775C310.449 159.126 311.068 161.003 311.944 162.061C314.721 165.422 318.27 167.941 320.739 171.607C322.249 173.849 323.424 176.245 323.914 178.877C324.05 179.601 323.878 181.083 324.417 181.69C326.086 183.572 331.346 183.544 333.683 184.698C341.664 188.638 344.469 200.107 347.568 207.339C348.441 209.376 349.306 211.417 349.771 213.576C350.081 215.019 350.066 216.854 350.893 218.148C352.699 220.973 358.309 218.45 361.063 218.013C365.677 217.279 370.269 216.58 374.903 215.964C377.729 215.589 381.844 214.62 383.998 216.989C386.231 219.445 384.947 223.314 383.826 225.95C381.996 230.251 379.659 234.36 377.728 238.622C376.187 242.022 375.421 246.402 372.461 249.021C369.897 251.292 365.655 251.943 362.636 250.095C360.914 249.041 356.491 238.842 355.324 239.298C357.431 247.175 360.519 255.207 363.783 262.725C364.785 265.034 366.506 269.743 369.038 270.995C371.137 272.033 375.899 270.072 378.047 269.691C380.083 269.33 384.102 267.766 386.049 268.912C388.409 270.302 388.697 274.008 388.962 276.309C389.158 278.015 388.801 279.289 390.995 279.204C392.541 279.144 394.101 278.431 395.584 278.072C399.028 277.241 402.602 276.691 406.108 276.156C414.216 274.917 422.32 273.682 430.425 272.412C437.392 271.32 444.268 271.327 450.564 268.2C453.755 266.616 457.413 266.132 460.812 265.072C464.182 264.021 467.541 263.339 471.068 262.944C478.778 262.082 486.28 261.237 493.899 259.76C498.069 258.951 502.231 258.104 506.378 257.198C510.07 256.391 513.639 255.11 517.313 254.32C520.37 253.662 522.88 254.156 524.189 250.874C525.128 248.521 524.91 245.883 525.151 243.42C526.254 232.165 522.087 220.846 521.235 209.653C520.959 206.028 520.874 202.392 520.586 198.77C520.455 197.11 520.534 192.278 518.487 191.383C518.301 192.71 518.446 194.943 516.852 195.602C517.631 195.28 516.608 199.201 516.553 199.595C516.336 201.16 516.879 202.835 516.592 204.371C516.82 204.911 516.72 205.318 516.296 205.592C516.006 205.814 515.795 206.095 515.663 206.434C515.643 207.529 515.982 206.883 515.998 207.261C516.159 211.028 515.486 214.932 515.773 218.791C516.078 222.869 517.04 226.87 517.771 230.892C518.427 234.502 519.134 238.12 519.682 241.747C520.066 244.292 520.35 247.213 518.903 249.53C516.154 253.929 508.197 253.451 503.563 254.17C495.86 255.366 488.146 256.445 480.415 257.462C477.447 257.851 474.443 258.742 471.44 258.787C468.232 258.834 466.516 257.609 464.493 255.369C460.419 250.857 457.791 245.733 454.397 240.825C452.491 238.068 450.905 237.341 447.696 236.5C444.715 235.718 442.323 233.661 439.898 231.95C434.805 228.355 428.227 224.447 424.884 219.153C421.366 213.582 426.323 211.733 431.07 210.213C429.915 207.309 427.649 204.976 425.783 202.478C423.662 199.637 421.738 196.687 419.454 193.953C414.798 188.381 410.147 182.838 405.629 177.161C401.766 172.31 397.863 167.715 392.933 163.785C387.982 159.837 382.47 156.602 377.034 153.297C374.194 151.571 369.208 147.16 365.619 147.611C362.137 148.049 360.76 154.184 359.89 156.763C358.892 159.722 358.54 163.847 356.214 166.177C352.796 169.601 349.247 164.208 347.616 161.723C344.63 157.17 341.573 152.658 338.591 148.102C337.232 146.025 335.268 144.048 334.462 141.693C334.452 141.664 334.075 139.639 334.456 139.923L334.482 139.945L334.456 139.918C333.603 139.119 330.452 138.953 329.274 138.856L329.166 138.847C326.687 138.626 324.179 138.8 321.708 139.026ZM288.418 266.679C285.563 266.663 282.716 266.977 279.874 267.197C277.378 267.39 275.09 267.029 272.598 266.887C269.515 266.711 267.991 267.017 268.701 270.029C269.217 272.221 269.837 275.14 272.216 276.066C275.429 277.318 279.758 277.15 283.181 277.624C285.695 277.972 288.202 278.286 290.704 278.682C292.367 278.946 293.22 279.222 293.998 277.44C294.649 275.946 294.23 273.951 294.008 272.409C293.837 271.225 293.939 269.143 293.348 268.09C292.466 266.518 290.155 266.689 288.418 266.679ZM421.515 236.643C425.71 240.27 428.532 244.908 431.7 249.306C433.633 251.991 437.417 256.271 434.67 259.527C432.329 262.303 426.886 261.667 423.612 261.801C418.467 262.011 414.264 264.21 409.368 265.345C397.035 268.203 407.278 248.593 408.986 244.5C410.185 241.629 411.421 238.77 412.871 236.002C413.525 234.755 414.829 231.116 416.455 230.64C418.812 229.949 420.024 235.353 421.515 236.643ZM315.558 195.411C313.598 198.956 313.28 203.862 312.35 207.733C309.51 219.57 307.849 231.626 306.543 243.69C313.038 241.253 319.894 241.084 326.753 240.488C331.721 240.056 336.284 239.561 341.254 239.761C342.101 239.795 344.537 240.202 345.235 239.521C346.173 238.606 345.037 236.055 344.761 235.093C343.254 229.868 342.592 224.469 340.88 219.277C339.135 213.981 337.013 208.693 334.756 203.574C333.105 199.829 330.837 196.178 326.836 194.341C323.334 192.734 317.732 191.48 315.558 195.411ZM288.808 218.449C291.484 222.266 294.874 225.605 297.488 229.457C299.341 232.19 301.511 237.244 297.06 238.982C295.497 239.591 293.653 239.327 292.015 239.355C289.484 239.396 286.976 239.602 284.44 239.545C282.041 239.49 279.665 239.215 277.273 239.097C275.765 239.023 273.871 239.133 272.542 238.313C268.981 236.116 271.556 231.629 272.703 228.759C273.921 225.709 275.565 222.825 277.152 219.935C278.252 217.931 279.897 213.847 282.399 213.03C285.362 212.062 287.574 216.689 288.808 218.449ZM418.577 175.203C424.458 181.674 429.565 188.731 434.374 195.939C436.722 199.457 439.001 203.016 441.276 206.575C442.765 208.904 443.883 211.884 445.696 213.993C449.834 218.805 450.985 208.306 451.594 206.024C453.844 197.609 456.629 189.261 459.107 180.899H456.568C446.444 180.894 436.738 180.752 426.881 177.93C424.09 177.132 421.547 175.399 418.577 175.203ZM397.193 176.835C400.396 179.072 420.895 192.209 412.272 197.278C410.488 198.327 407.572 197.851 405.556 198.002C402.971 198.195 400.347 198.432 397.794 198.864C394.489 199.426 391.278 200.404 387.958 200.9C385.318 201.294 381.82 201.754 379.462 200.199C375.571 197.634 377.933 192.595 379.217 189.333C381.043 184.699 382.773 178.495 387.302 175.734C388.356 175.092 389.648 172.798 390.782 172.588C392.558 172.259 395.894 175.928 397.193 176.835ZM510.29 67.8645C508.744 68.9832 508.673 71.3067 508.273 72.9466C506.924 78.4628 505.043 83.8324 503.926 89.4074C502.837 94.8449 502.495 100.198 503.029 105.709C503.386 109.384 503.427 113.906 505.788 117.036C508.615 120.781 514.211 120.589 518.444 121.699C522.516 122.766 526.553 126.071 522.111 129.507C520.533 130.728 518.46 130.926 516.9 132.102C514.975 133.554 513.869 136.154 513.052 138.281C512.378 140.032 512.398 140.366 514.41 140.985C515.328 141.267 516.257 141.447 517.223 141.371C519.424 141.198 521.388 139.823 523.231 138.789C527.931 136.154 533.36 132.636 538.972 132.238C540.766 132.111 542.805 132.806 544.549 132.254C546.174 131.74 545.676 131.425 545.958 129.995C547.076 124.328 547.53 118.765 550.585 113.637C552.093 111.107 556.079 105.932 558.751 109.871C559.866 111.516 560.27 112.319 562.745 111.814C564.759 111.404 566.972 109.897 566.572 107.697C566.196 105.62 563.31 104.207 561.561 103.297C559.231 102.086 557.597 102.226 555.061 101.939C548.09 101.15 552.977 91.5063 553.982 87.8875C554.614 85.6132 555.353 82.6735 553.694 80.6199C551.171 77.4963 545.673 78.5233 542.21 78.9664C537.421 79.5793 532.192 79.9058 527.71 77.8494C522.967 75.6741 520.946 70.768 516.5 68.3828C514.856 67.5012 511.978 66.6411 510.29 67.8645ZM531.101 107.706C534.396 107.664 532.795 112.109 531.892 113.604C529.991 116.756 525.92 117.975 522.345 116.812C519.517 115.893 516.458 111.831 520.887 111.157C523.011 110.835 525.114 110.966 527.126 110.01C528.273 109.466 529.755 107.723 531.101 107.706ZM522.835 84.0695C524.882 85.2454 521.388 92.7557 520.799 94.2757C519.841 96.7565 518.988 98.3579 521.426 100.27C523.121 101.6 526.465 102.747 524.868 105.397C523.391 107.849 518.322 106.821 516.26 105.621C513.264 103.877 514.147 100.535 514.808 97.7931C515.24 95.9965 519.189 81.9758 522.835 84.0695ZM200.431 34.7579C206.745 37.3094 213.202 39.6142 219.883 41.1517C225.721 42.4957 231.462 43.9449 237.48 43.6291C243.047 43.3377 243.711 48.5115 240.531 52.0946C238.803 54.0412 236.799 53.9926 234.281 54.0678C231.334 54.1561 228.657 54.9297 225.815 55.6223C221.486 56.6771 217.104 57.5729 212.909 59.0617C210.744 59.8302 208.608 60.7339 206.677 61.9482C205.464 62.7122 202.755 64.0884 204.188 65.1556C206.258 66.6976 212.405 64.5852 214.869 64.446C220.608 64.1223 226.334 63.6323 232.04 62.9527C234.835 62.6194 237.835 62.29 240.482 61.3297C242.213 60.7016 244.13 59.1421 246.091 59.5382C250.228 60.374 248.178 66.241 246.3 68.1497C243.511 70.9842 239.276 72.2359 235.674 73.8464C233.156 74.9725 230.653 76.1648 228.208 77.425C227.053 78.0203 221.669 80.2504 221.84 81.9435C222.019 83.7232 226.268 82.8257 227.319 82.6638C234.333 81.5847 240.662 79.019 247.142 76.3934C249.979 75.2441 252.855 74.1412 255.632 72.8668C257.572 71.9761 259.479 70.6192 261.622 70.2146C266.675 69.2599 266.454 74.599 268.444 77.4832C274.357 86.0552 285.782 89.7119 294.672 94.6655C298.035 96.5392 301.243 98.6968 304.328 100.954C306.533 102.566 307.414 104.784 309.875 102.659C311.926 100.887 312.916 98.2883 314.23 96.035C315.761 93.4116 317.805 91.0954 319.374 88.4935C321.693 84.6495 322.387 80.9832 317.296 79.5685C311.951 78.0836 307.721 75.8694 303.178 72.7101C292.029 64.9564 282.778 55.0553 271.661 47.2422C261.362 40.0035 250.441 33.2108 237.53 31.267C225.293 29.4239 211.867 29.8777 200.431 34.7579ZM534.447 90.4362C534.186 92.5707 533.63 97.1231 530.496 97.2935C526.689 97.5 529.246 86.5599 531.402 85.3286C534.854 83.3571 534.668 88.6276 534.447 90.4362ZM499.026 89.5647C494.275 89.9371 492.92 94.8608 497.67 96.6042L499.026 89.5647ZM516.645 85.2437C516.035 87.4783 516.253 91.0643 514.357 92.7795C511.685 95.1963 510.522 91.6494 510.541 89.627C510.56 87.6266 511.608 82.6231 514.438 82.3594C516.856 82.1342 514.844 84.7859 516.645 85.2437ZM567.926 35.5263C566.189 38.9459 568.056 42.3208 569.096 45.6821C566.963 46.3323 564.09 45.8405 562.788 47.9728C561.967 49.3167 562.11 51.3403 562.356 52.7957C562.557 53.9897 563.592 55.5974 562.731 56.7054C561.603 58.1557 558.804 57.4852 557.561 59.0985C555.671 61.5521 556.731 67.1566 559.383 69.0036C563.111 71.5981 560.887 65.2309 560.659 64.0714C560.087 61.1668 563.268 61.5617 565.44 60.3887C566.606 59.7594 566.814 59.6378 567.082 58.2944C567.329 57.0568 567.198 56.075 566.886 54.7412C565.829 50.2159 567.677 50.9549 571.477 49.9579C574.755 49.0972 574.493 46.6192 573.66 44.0145C573.007 41.9728 571.06 38.6234 573.169 36.8827C574.006 36.1918 575.277 36.6286 575.458 35.1868C575.58 34.2135 574.199 32.6177 573.474 32.0581C570.976 30.1284 568.941 33.5265 567.926 35.5263Z" fill="black"/>
<defs>
<filter id="filter0_d" x="0.500026" y="216.5" width="469" height="153" filterUnits="userSpaceOnUse" color-interpolation-filters="sRGB">
<feFlood flood-opacity="0" result="BackgroundImageFix"/>
<feColorMatrix in="SourceAlpha" type="matrix" values="0 0 0 0 0 0 0 0 0 0 0 0 0 0 0 0 0 0 127 0" result="hardAlpha"/>
<feOffset dy="4"/>
<feGaussianBlur stdDeviation="2"/>
<feComposite in2="hardAlpha" operator="out"/>
<feColorMatrix type="matrix" values="0 0 0 0 0 0 0 0 0 0 0 0 0 0 0 0 0 0 1 0"/>
<feBlend mode="normal" in2="BackgroundImageFix" result="effect1_dropShadow"/>
<feBlend mode="normal" in="SourceGraphic" in2="effect1_dropShadow" result="shape"/>
</filter>
</defs>
</svg>
